<svg width="20" height="21" viewBox="0 0 20 21" fill="none" xmlns="http://www.w3.org/2000/svg">
<path d="M3.85 15.85C4.7 15.2 5.65 14.6875 6.7 14.3125C7.75 13.9375 8.85 13.75 10 13.75C11.15 13.75 12.25 13.9375 13.3 14.3125C14.35 14.6875 15.3 15.2 16.15 15.85C16.7333 15.1667 17.1875 14.3917 17.5125 13.525C17.8375 12.6583 18 11.7333 18 10.75C18 8.53333 17.2208 6.64583 15.6625 5.0875C14.1042 3.52917 12.2167 2.75 10 2.75C7.78333 2.75 5.89583 3.52917 4.3375 5.0875C2.77917 6.64583 2 8.53333 2 10.75C2 11.7333 2.1625 12.6583 2.4875 13.525C2.8125 14.3917 3.26667 15.1667 3.85 15.85ZM10 11.75C9.01667 11.75 8.1875 11.4125 7.5125 10.7375C6.8375 10.0625 6.5 9.23333 6.5 8.25C6.5 7.26667 6.8375 6.4375 7.5125 5.7625C8.1875 5.0875 9.01667 4.75 10 4.75C10.9833 4.75 11.8125 5.0875 12.4875 5.7625C13.1625 6.4375 13.5 7.26667 13.5 8.25C13.5 9.23333 13.1625 10.0625 12.4875 10.7375C11.8125 11.4125 10.9833 11.75 10 11.75ZM10 20.75C8.61667 20.75 7.31667 20.4875 6.1 19.9625C4.88333 19.4375 3.825 18.725 2.925 17.825C2.025 16.925 1.3125 15.8667 0.7875 14.65C0.2625 13.4333 0 12.1333 0 10.75C0 9.36667 0.2625 8.06667 0.7875 6.85C1.3125 5.63333 2.025 4.575 2.925 3.675C3.825 2.775 4.88333 2.0625 6.1 1.5375C7.31667 1.0125 8.61667 0.75 10 0.75C11.3833 0.75 12.6833 1.0125 13.9 1.5375C15.1167 2.0625 16.175 2.775 17.075 3.675C17.975 4.575 18.6875 5.63333 19.2125 6.85C19.7375 8.06667 20 9.36667 20 10.75C20 12.1333 19.7375 13.4333 19.2125 14.65C18.6875 15.8667 17.975 16.925 17.075 17.825C16.175 18.725 15.1167 19.4375 13.9 19.9625C12.6833 20.4875 11.3833 20.75 10 20.75ZM10 18.75C10.8833 18.75 11.7167 18.6208 12.5 18.3625C13.2833 18.1042 14 17.7333 14.65 17.25C14 16.7667 13.2833 16.3958 12.5 16.1375C11.7167 15.8792 10.8833 15.75 10 15.75C9.11667 15.75 8.28333 15.8792 7.5 16.1375C6.71667 16.3958 6 16.7667 5.35 17.25C6 17.7333 6.71667 18.1042 7.5 18.3625C8.28333 18.6208 9.11667 18.75 10 18.75ZM10 9.75C10.4333 9.75 10.7917 9.60833 11.075 9.325C11.3583 9.04167 11.5 8.68333 11.5 8.25C11.5 7.81667 11.3583 7.45833 11.075 7.175C10.7917 6.89167 10.4333 6.75 10 6.75C9.56667 6.75 9.20833 6.89167 8.925 7.175C8.64167 7.45833 8.5 7.81667 8.5 8.25C8.5 8.68333 8.64167 9.04167 8.925 9.325C9.20833 9.60833 9.56667 9.75 10 9.75Z" fill="#322B43"/>
</svg>
