<svg width="4" height="17" viewBox="0 0 4 17" fill="none" xmlns="http://www.w3.org/2000/svg">
<path d="M2 16.75C1.45 16.75 0.979167 16.5542 0.5875 16.1625C0.195833 15.7708 0 15.3 0 14.75C0 14.2 0.195833 13.7292 0.5875 13.3375C0.979167 12.9458 1.45 12.75 2 12.75C2.55 12.75 3.02083 12.9458 3.4125 13.3375C3.80417 13.7292 4 14.2 4 14.75C4 15.3 3.80417 15.7708 3.4125 16.1625C3.02083 16.5542 2.55 16.75 2 16.75ZM2 10.75C1.45 10.75 0.979167 10.5542 0.5875 10.1625C0.195833 9.77083 0 9.3 0 8.75C0 8.2 0.195833 7.72917 0.5875 7.3375C0.979167 6.94583 1.45 6.75 2 6.75C2.55 6.75 3.02083 6.94583 3.4125 7.3375C3.80417 7.72917 4 8.2 4 8.75C4 9.3 3.80417 9.77083 3.4125 10.1625C3.02083 10.5542 2.55 10.75 2 10.75ZM2 4.75C1.45 4.75 0.979167 4.55417 0.5875 4.1625C0.195833 3.77083 0 3.3 0 2.75C0 2.2 0.195833 1.72917 0.5875 1.3375C0.979167 0.945833 1.45 0.75 2 0.75C2.55 0.75 3.02083 0.945833 3.4125 1.3375C3.80417 1.72917 4 2.2 4 2.75C4 3.3 3.80417 3.77083 3.4125 4.1625C3.02083 4.55417 2.55 4.75 2 4.75Z" fill="white"/>
</svg>
