<svg width="17" height="21" viewBox="0 0 17 21" fill="none" xmlns="http://www.w3.org/2000/svg">
<path d="M0.25 17.75V15.75H2.25V8.75C2.25 7.36667 2.66667 6.1375 3.5 5.0625C4.33333 3.9875 5.41667 3.28333 6.75 2.95V2.25C6.75 1.83333 6.89583 1.47917 7.1875 1.1875C7.47917 0.895833 7.83333 0.75 8.25 0.75C8.66667 0.75 9.02083 0.895833 9.3125 1.1875C9.60417 1.47917 9.75 1.83333 9.75 2.25V2.95C11.0833 3.28333 12.1667 3.9875 13 5.0625C13.8333 6.1375 14.25 7.36667 14.25 8.75V15.75H16.25V17.75H0.25ZM8.25 20.75C7.7 20.75 7.22917 20.5542 6.8375 20.1625C6.44583 19.7708 6.25 19.3 6.25 18.75H10.25C10.25 19.3 10.0542 19.7708 9.6625 20.1625C9.27083 20.5542 8.8 20.75 8.25 20.75ZM4.25 15.75H12.25V8.75C12.25 7.65 11.8583 6.70833 11.075 5.925C10.2917 5.14167 9.35 4.75 8.25 4.75C7.15 4.75 6.20833 5.14167 5.425 5.925C4.64167 6.70833 4.25 7.65 4.25 8.75V15.75Z" fill="#322B43"/>
</svg>
