<svg width="21" height="19" viewBox="0 0 21 19" fill="none" xmlns="http://www.w3.org/2000/svg">
<path d="M19.775 8.8V16.75C19.775 17.3 19.5792 17.7708 19.1875 18.1625C18.7959 18.5542 18.325 18.75 17.775 18.75H3.77503C3.22503 18.75 2.75419 18.5542 2.36253 18.1625C1.97086 17.7708 1.77503 17.3 1.77503 16.75V8.8C1.39169 8.45 1.09586 8 0.887527 7.45C0.679194 6.9 0.675027 6.3 0.875027 5.65L1.92503 2.25C2.05836 1.81667 2.29586 1.45833 2.63753 1.175C2.97919 0.891667 3.37503 0.75 3.82503 0.75H17.725C18.175 0.75 18.5667 0.8875 18.9 1.1625C19.2334 1.4375 19.475 1.8 19.625 2.25L20.675 5.65C20.875 6.3 20.8709 6.89167 20.6625 7.425C20.4542 7.95833 20.1584 8.41667 19.775 8.8ZM12.975 7.75C13.425 7.75 13.7667 7.59583 14 7.2875C14.2334 6.97917 14.325 6.63333 14.275 6.25L13.725 2.75H11.775V6.45C11.775 6.8 11.8917 7.10417 12.125 7.3625C12.3584 7.62083 12.6417 7.75 12.975 7.75ZM8.47503 7.75C8.85836 7.75 9.17086 7.62083 9.41253 7.3625C9.65419 7.10417 9.77503 6.8 9.77503 6.45V2.75H7.82503L7.27503 6.25C7.20836 6.65 7.29586 7 7.53753 7.3C7.77919 7.6 8.09169 7.75 8.47503 7.75ZM4.02503 7.75C4.32503 7.75 4.58753 7.64167 4.81253 7.425C5.03753 7.20833 5.17503 6.93333 5.22503 6.6L5.77503 2.75H3.82503L2.82503 6.1C2.72503 6.43333 2.77919 6.79167 2.98753 7.175C3.19586 7.55833 3.54169 7.75 4.02503 7.75ZM17.525 7.75C18.0084 7.75 18.3584 7.55833 18.575 7.175C18.7917 6.79167 18.8417 6.43333 18.725 6.1L17.675 2.75H15.775L16.325 6.6C16.375 6.93333 16.5125 7.20833 16.7375 7.425C16.9625 7.64167 17.225 7.75 17.525 7.75ZM3.77503 16.75H17.775V9.7C17.6917 9.73333 17.6375 9.75 17.6125 9.75H17.525C17.075 9.75 16.6792 9.675 16.3375 9.525C15.9959 9.375 15.6584 9.13333 15.325 8.8C15.025 9.1 14.6834 9.33333 14.3 9.5C13.9167 9.66667 13.5084 9.75 13.075 9.75C12.625 9.75 12.2042 9.66667 11.8125 9.5C11.4209 9.33333 11.075 9.1 10.775 8.8C10.4917 9.1 10.1625 9.33333 9.78753 9.5C9.41253 9.66667 9.00836 9.75 8.57503 9.75C8.09169 9.75 7.65419 9.66667 7.26253 9.5C6.87086 9.33333 6.52503 9.1 6.22503 8.8C5.87503 9.15 5.52919 9.39583 5.18753 9.5375C4.84586 9.67917 4.45836 9.75 4.02503 9.75H3.91253C3.87086 9.75 3.82503 9.73333 3.77503 9.7V16.75Z" fill="#322B43"/>
</svg>
